<?xml version="1.0" standalone="no"?>
<!DOCTYPE svg PUBLIC "-//W3C//DTD SVG 20010904//EN"
 "http://www.w3.org/TR/2001/REC-SVG-20010904/DTD/svg10.dtd">
<svg version="1.0" xmlns="http://www.w3.org/2000/svg"
 width="500.000000pt" height="500.000000pt" viewBox="0 0 500.000000 500.000000"
 preserveAspectRatio="xMidYMid meet">
<metadata>
Created by potrace 1.16, written by Peter Selinger 2001-2019
</metadata>
<g transform="translate(0.000000,500.000000) scale(0.090909,-0.125000)"
fill="#000000" stroke="none">
<path d="M0 2000 l0 -2000 2750 0 2750 0 0 2000 0 2000 -2750 0 -2750 0 0
-2000z m1893 1564 c75 -115 187 -205 281 -228 16 -4 59 -7 95 -7 l66 0 -50
-45 c-28 -25 -41 -42 -30 -39 11 4 54 20 96 35 107 40 222 56 294 42 43 -9 73
-9 125 0 57 10 81 9 156 -6 49 -9 122 -30 162 -47 40 -16 77 -29 80 -29 4 0
-15 20 -43 44 l-50 44 70 1 c81 1 137 17 198 60 61 41 158 149 196 215 18 30
36 58 41 61 11 7 143 -117 194 -184 148 -193 177 -393 83 -577 -14 -28 -37
-65 -51 -82 -15 -16 -26 -34 -26 -38 0 -5 16 -34 36 -64 19 -30 46 -91 61
-135 22 -67 26 -99 27 -200 1 -114 -16 -230 -34 -223 -4 2 -40 40 -80 85 -41
46 -75 82 -76 80 -1 -1 4 -33 12 -72 25 -131 16 -269 -28 -405 -37 -117 -137
-300 -162 -300 -7 0 -25 18 -42 40 -42 58 -56 53 -50 -17 16 -174 16 -190 4
-200 -20 -16 -328 -183 -337 -183 -4 0 -26 26 -47 58 l-39 57 -3 -40 c-9 -143
-38 -221 -116 -315 -66 -78 -188 -190 -207 -190 -22 0 -221 208 -256 267 -31
54 -53 138 -53 211 0 28 -4 52 -10 52 -5 0 -25 -22 -42 -50 -18 -27 -37 -50
-42 -50 -5 0 -85 42 -178 93 l-169 92 6 135 7 135 -46 -50 -46 -50 -25 30
c-31 37 -97 162 -124 235 -51 137 -68 317 -41 444 6 32 10 60 7 62 -2 2 -37
-32 -76 -76 -40 -44 -76 -78 -81 -75 -18 11 -33 145 -28 251 7 131 31 214 88
303 l41 63 -34 46 c-74 102 -102 189 -101 312 2 167 91 322 284 494 40 36 45
38 54 21 6 -10 32 -51 59 -91z m3109 -1991 c16 -15 17 -18 3 -33 -15 -16 -7
-26 105 -125 66 -58 120 -110 120 -115 0 -26 -36 -26 -114 1 -105 37 -117 37
-110 1 4 -19 -1 -36 -16 -55 -26 -33 -66 -36 -104 -6 -52 41 -21 129 53 145
14 3 39 9 55 13 l29 7 -41 33 c-50 39 -42 42 -167 -78 l-86 -82 83 -92 c45
-51 93 -105 107 -120 24 -27 25 -29 9 -41 -15 -11 -28 -10 -75 2 -48 12 -71
13 -136 3 -71 -11 -81 -11 -98 5 -10 9 -19 28 -19 41 0 12 -4 23 -9 23 -5 0
-23 12 -40 26 -59 49 -30 134 46 134 29 0 36 -5 47 -32 13 -30 14 -30 24 -11
9 17 8 24 -8 38 -20 18 -27 45 -12 45 10 0 112 89 225 196 55 52 101 94 105
94 3 0 14 -7 24 -17z m-4289 -111 c69 -57 128 -110 131 -118 3 -8 11 -14 19
-14 7 0 24 -11 37 -25 19 -20 21 -27 10 -40 -9 -11 -23 -14 -44 -10 -29 5 -38
-1 -126 -90 -117 -117 -121 -120 -152 -95 l-23 19 105 105 c58 58 106 111 108
119 2 8 -4 20 -13 27 -13 11 -31 -3 -130 -101 -139 -136 -145 -137 -149 -9 -1
59 -8 97 -21 122 -18 36 -18 38 0 58 11 12 31 20 49 20 30 0 119 -20 160 -36
33 -13 14 10 -67 81 -74 64 -77 68 -61 86 10 11 22 15 29 11 8 -4 70 -53 138
-110z m255 -269 c55 -47 21 -127 -53 -127 -29 0 -43 7 -62 28 -42 50 -7 116
62 116 18 0 42 -8 53 -17z m303 -135 c93 -51 191 -104 219 -118 62 -32 64 -34
51 -59 -9 -16 -18 -19 -40 -15 -26 6 -31 0 -89 -93 -91 -145 -103 -158 -130
-144 -12 6 -22 16 -22 22 0 5 34 63 75 128 41 65 75 124 75 130 0 5 -9 15 -20
21 -18 10 -27 -1 -100 -112 -44 -68 -81 -127 -83 -133 -5 -13 -57 11 -57 26 0
7 23 48 50 91 28 43 50 85 50 92 0 17 -27 29 -35 16 -4 -6 -19 -10 -35 -10
-18 0 -39 -10 -54 -25 -34 -33 -71 -32 -107 4 -36 36 -37 70 -4 110 47 56 141
62 177 12 7 -9 32 -22 54 -29 99 -29 81 -7 -54 64 -135 72 -134 71 -121 95 5
10 14 19 20 19 5 0 86 -42 180 -92z m3238 73 c8 -14 7 -22 -4 -31 -8 -7 -15
-18 -15 -24 0 -6 32 -63 70 -126 39 -63 70 -120 70 -127 0 -15 -37 -36 -50
-28 -5 3 -42 60 -81 126 -40 66 -75 122 -79 124 -11 7 -50 -6 -50 -17 0 -5 34
-65 76 -134 64 -104 74 -127 63 -140 -25 -30 -52 -11 -100 70 -37 62 -58 85
-96 107 -47 28 -93 38 -93 20 0 -5 15 -13 33 -16 39 -9 77 -42 77 -67 0 -26
-36 -58 -65 -58 -13 0 -35 -11 -49 -25 -32 -32 -60 -32 -92 1 -25 25 -27 39
-8 88 9 24 -37 20 -77 -7 -28 -19 -35 -30 -37 -64 -3 -45 20 -100 58 -141 20
-21 23 -22 39 -8 10 9 32 16 50 16 71 0 60 -92 -13 -105 -94 -18 -206 111
-206 236 0 28 5 59 11 70 14 28 126 79 171 79 31 0 39 5 56 35 21 35 56 51 91
42 13 -3 21 1 24 13 5 18 74 60 100 60 7 0 28 11 47 25 40 30 66 32 79 6z
m-2696 -311 c40 -11 113 -31 162 -46 157 -45 200 -53 412 -79 167 -21 249 -26
418 -25 116 1 216 1 223 1 6 -1 12 -12 12 -26 0 -20 -5 -25 -25 -25 l-25 0 0
-160 c0 -153 -1 -160 -20 -160 -14 0 -29 18 -54 68 -19 37 -41 75 -48 86 -14
18 -16 18 -41 -8 -72 -72 -176 16 -107 90 34 35 112 34 161 -1 l34 -26 3 42
c6 72 8 71 -135 64 -184 -9 -169 -1 -182 -97 -29 -206 -30 -208 -61 -208 -16
0 -31 3 -33 7 -3 5 4 71 16 147 19 135 19 140 1 153 -10 7 -23 12 -29 10 -5
-2 -16 -42 -23 -88 -36 -234 -32 -219 -57 -219 -20 0 -26 9 -45 73 -12 39 -28
80 -35 90 -13 18 -14 18 -34 -2 -48 -48 -141 -5 -126 59 18 75 135 82 200 10
18 -20 20 -20 26 -3 4 10 8 34 8 54 l1 37 -117 12 c-65 7 -133 13 -152 14
l-34 1 -46 -135 c-37 -109 -50 -135 -66 -138 -50 -6 -50 9 -1 154 43 129 45
140 29 152 -9 7 -22 11 -27 9 -5 -2 -30 -64 -56 -138 -25 -74 -49 -139 -53
-146 -15 -23 -43 -1 -60 48 -12 33 -37 68 -73 105 -46 46 -55 60 -50 80 8 30
34 41 133 56 40 6 73 14 73 18 0 3 -47 18 -105 34 -82 22 -105 32 -105 45 0
37 15 39 113 11z m1805 -68 c3 -17 -2 -25 -17 -29 -12 -3 -21 -8 -21 -12 0 -3
18 -68 41 -145 22 -76 37 -142 32 -147 -5 -5 -19 -10 -32 -11 -21 -3 -26 4
-45 71 -21 70 -48 107 -68 94 -6 -3 -17 -22 -25 -42 -29 -69 -51 -91 -92 -91
-24 0 -45 7 -59 20 -27 25 -27 32 -4 53 17 15 20 15 41 0 19 -13 25 -13 32 -2
16 25 9 47 -22 73 -19 17 -43 26 -64 26 -18 0 -38 6 -44 14 -7 8 -20 12 -30 9
-13 -3 -21 2 -26 17 -4 12 -4 25 0 28 9 10 366 101 385 99 8 -1 16 -13 18 -25z
m176 -3 c50 -39 24 -114 -44 -125 -77 -13 -123 78 -64 125 15 12 39 21 54 21
15 0 39 -9 54 -21z"/>
<path d="M1785 3480 c-9 -28 -20 -81 -23 -118 l-7 -67 -24 58 c-13 31 -27 57
-31 57 -10 0 -45 -101 -59 -168 -31 -149 7 -323 86 -394 19 -17 23 -16 103 37
46 30 88 55 93 55 5 0 -8 -19 -30 -42 -68 -75 -121 -151 -158 -229 -36 -77
-75 -233 -61 -247 5 -4 50 38 102 93 52 54 94 94 94 89 0 -6 -12 -39 -26 -75
-96 -236 -80 -514 43 -740 l26 -49 66 0 c36 0 71 -4 77 -8 7 -4 15 -57 19
-128 l7 -121 94 -82 c52 -45 101 -84 109 -87 18 -7 39 67 32 112 -3 18 -21 66
-41 108 -19 42 -32 76 -29 76 3 0 52 -43 109 -96 95 -88 104 -99 104 -132 0
-54 41 -133 90 -175 44 -37 114 -67 160 -67 42 0 145 57 175 96 31 41 65 123
65 157 0 16 31 53 100 122 55 54 103 96 105 93 3 -3 -10 -40 -30 -83 -20 -45
-35 -93 -35 -115 0 -55 11 -100 24 -100 7 0 58 40 113 89 l100 89 5 116 c3 64
9 120 12 124 4 4 40 9 79 12 l72 5 46 93 c62 126 83 218 82 362 -1 128 -24
247 -67 345 -15 31 -26 60 -26 64 0 3 45 -39 100 -94 l100 -100 0 35 c0 61
-28 157 -69 237 -44 88 -70 124 -135 193 -25 27 -46 51 -46 54 0 11 75 -31
124 -68 25 -20 50 -36 55 -36 13 0 60 65 81 113 32 73 42 158 30 248 -12 87
-45 205 -60 214 -5 3 -19 -17 -31 -46 -26 -59 -34 -52 -42 38 -4 35 -14 80
-23 100 l-16 38 -17 -46 c-26 -67 -74 -129 -130 -169 -64 -45 -77 -74 -63
-143 6 -28 14 -60 18 -71 6 -16 1 -15 -32 7 -43 28 -129 55 -140 44 -4 -4 5
-20 20 -36 29 -31 43 -90 32 -136 -6 -25 -7 -25 -80 39 -83 72 -181 123 -301
158 -103 29 -294 31 -395 4 -134 -36 -253 -101 -330 -180 -24 -25 -47 -46 -51
-46 -3 0 -9 18 -13 40 -7 47 12 102 46 130 51 41 -24 37 -108 -5 -26 -13 -49
-23 -51 -21 -1 1 2 18 7 37 6 18 10 55 10 81 0 43 -3 49 -37 74 -90 66 -131
117 -154 192 -7 23 -16 42 -20 42 -4 0 -15 -23 -24 -50z m1105 -375 c0 -8
-175 -145 -186 -145 -9 0 -156 110 -188 141 -6 5 67 9 182 9 106 0 192 -2 192
-5z m-284 -166 l97 -60 61 37 c34 21 76 48 95 60 19 13 38 21 43 18 4 -3 8
-34 8 -69 l0 -65 66 33 c65 32 66 32 80 12 30 -40 68 -235 47 -235 -5 0 -20
23 -34 52 -13 28 -32 62 -42 74 l-18 23 -52 -24 c-28 -14 -57 -25 -63 -25 -6
0 -19 16 -30 35 -10 19 -22 35 -26 35 -3 0 -25 -48 -48 -107 -75 -197 -82
-213 -90 -208 -4 2 -33 74 -66 160 -32 85 -61 155 -65 155 -4 0 -17 -16 -29
-35 -12 -19 -26 -35 -31 -35 -5 0 -32 11 -61 25 -29 14 -55 22 -59 18 -4 -5
-26 -42 -49 -83 l-41 -75 5 75 c5 88 19 139 46 172 l19 23 51 -27 c75 -42 80
-39 80 37 0 36 2 65 4 65 3 0 48 -27 102 -61z m-391 -205 c-8 -43 -15 -82 -15
-85 0 -4 22 -9 49 -11 26 -3 79 -19 116 -36 l67 -32 19 24 c21 27 87 71 95 64
2 -3 -2 -21 -10 -40 -8 -19 -20 -63 -26 -99 -14 -81 4 -177 49 -268 17 -33 27
-61 21 -61 -17 0 -106 93 -126 131 -10 19 -23 57 -29 84 -9 34 -17 49 -26 46
-39 -12 -81 -12 -94 -1 -24 20 -26 7 -4 -27 20 -32 20 -32 60 -18 l39 14 0
-34 c0 -30 -5 -37 -35 -50 -64 -26 -65 -25 -116 60 -27 44 -53 88 -59 98 -20
32 -21 13 -4 -72 8 -46 13 -85 11 -88 -3 -2 -21 15 -40 38 -73 85 -87 201 -38
305 26 56 98 150 108 141 2 -2 -4 -39 -12 -83z m1059 -31 c57 -100 53 -211
-10 -310 -40 -63 -59 -69 -50 -15 4 20 9 60 12 87 l6 50 -59 -97 c-63 -106
-70 -111 -133 -80 -34 17 -47 40 -36 67 4 12 10 12 40 0 40 -17 33 -22 106 86
27 40 45 76 40 77 -6 2 -27 1 -46 -2 -30 -6 -33 -9 -24 -26 28 -52 -2 -100
-61 -100 -21 0 -41 5 -44 10 -13 21 -22 8 -34 -45 -14 -64 -68 -149 -118 -188
-20 -15 -38 -25 -40 -24 -2 2 9 30 23 61 57 126 67 222 34 328 -11 34 -20 66
-20 70 0 15 36 -6 76 -44 l40 -38 61 30 c34 17 85 34 113 37 l52 6 -6 51 c-3
28 -9 69 -12 91 l-5 40 35 -40 c20 -22 47 -59 60 -82z m-1270 -135 c-44 -138
-56 -306 -30 -407 18 -70 52 -134 67 -125 5 3 9 33 10 67 2 114 -2 110 129
124 148 15 173 15 165 3 -4 -6 -47 -37 -96 -70 -118 -80 -124 -90 -124 -210 0
-89 2 -99 33 -153 l33 -58 -33 17 c-17 9 -69 53 -113 98 -96 96 -148 191 -165
300 -21 134 14 283 93 403 25 38 42 43 31 11z m1471 -85 c65 -135 72 -329 17
-447 -43 -92 -110 -176 -194 -241 -39 -31 -72 -54 -74 -53 -1 2 11 32 28 67
28 55 32 72 30 139 -2 123 -4 127 -125 211 -59 41 -105 76 -103 79 5 4 229
-15 273 -24 19 -3 22 -13 28 -89 4 -47 12 -85 17 -85 15 0 56 101 68 170 14
78 7 184 -21 292 -10 42 -19 80 -19 85 1 16 51 -53 75 -104z m-1123 -346 l-72
-72 0 -115 0 -115 35 -47 c31 -43 39 -48 73 -48 l37 0 -40 23 c-38 21 -41 26
-53 92 -19 108 -12 118 28 40 32 -64 38 -70 80 -82 65 -19 68 -12 12 26 l-49
34 -6 101 c-4 55 -5 101 -3 103 2 2 16 -33 32 -77 25 -73 32 -84 66 -101 53
-27 57 -24 19 15 -28 29 -34 45 -47 126 -8 51 -13 97 -11 104 2 6 26 -31 53
-83 28 -55 74 -121 108 -159 49 -54 56 -66 45 -77 -8 -8 -57 -48 -109 -89 -95
-76 -95 -76 -155 -76 l-60 1 -73 72 -73 72 12 125 c6 69 15 131 19 138 8 16
193 151 199 145 3 -2 -27 -36 -67 -76z m742 6 c50 -36 92 -67 93 -67 0 -1 8
-62 16 -136 l16 -135 -77 -72 c-77 -73 -77 -73 -134 -73 -56 0 -58 1 -157 80
-55 44 -103 85 -106 91 -4 6 14 33 43 62 27 29 71 92 97 142 54 101 75 134 75
119 0 -6 -7 -53 -16 -105 -13 -80 -20 -99 -47 -126 -17 -18 -29 -35 -26 -37 2
-2 21 3 41 11 31 12 40 23 54 66 40 120 43 121 44 14 l0 -97 -50 -36 c-28 -20
-49 -38 -47 -41 2 -2 26 2 52 9 45 12 49 16 86 88 l40 75 -6 -50 c-15 -117
-24 -140 -63 -163 l-37 -22 37 0 c34 0 41 5 73 52 35 52 35 54 35 158 l0 106
-71 77 c-39 42 -68 77 -64 77 4 0 48 -30 99 -67z m-340 -25 c60 13 86 -4 86
-56 0 -28 -3 -33 -12 -24 -7 7 -21 12 -33 12 -18 -1 -18 -1 -2 -11 30 -18 20
-57 -30 -115 -26 -30 -52 -54 -59 -54 -15 0 -91 82 -106 115 -9 21 -8 28 8 46
18 20 18 20 -11 17 -24 -2 -31 1 -33 19 -2 12 5 30 16 41 17 17 26 18 75 10
36 -6 72 -6 101 0z m-128 -405 c-53 -51 -76 -95 -76 -145 l0 -32 33 32 c18 18
37 32 42 32 6 0 21 -25 34 -55 37 -86 45 -87 83 -11 18 36 38 66 44 66 7 0 22
-13 34 -30 38 -53 51 -33 29 44 -7 25 -30 58 -64 93 -30 29 -48 53 -42 53 24
0 115 -48 152 -81 80 -70 79 -139 -2 -229 -55 -61 -169 -150 -192 -150 -25 0
-150 103 -198 163 -44 53 -60 99 -49 141 9 35 80 102 139 130 77 37 87 31 33
-21z"/>
</g>
</svg>
